<?xml version="1.0" encoding="utf-8"?>
<!-- Generator: Adobe Illustrator 15.1.0, SVG Export Plug-In . SVG Version: 6.00 Build 0)  -->
<!DOCTYPE svg PUBLIC "-//W3C//DTD SVG 1.1//EN" "http://www.w3.org/Graphics/SVG/1.1/DTD/svg11.dtd">
<svg version="1.1" id="レイヤー_1" xmlns="http://www.w3.org/2000/svg" xmlns:xlink="http://www.w3.org/1999/xlink" x="0px"
	 y="0px" width="800.139px" height="650.162px" viewBox="-0.069 74.919 800.139 650.162"
	 enable-background="new -0.069 74.919 800.139 650.162" xml:space="preserve">
<path fill="#FFFFFF" stroke="#FFFFFF" stroke-width="0.5" d="M534.475,75.313v-0.145h37.495l13.699,2.74
	c9.134,1.779,17.426,4.11,24.876,6.994c7.451,2.884,14.662,6.249,21.632,10.094c6.971,3.846,13.292,7.764,18.964,11.753
	c5.624,3.942,10.672,8.124,15.143,12.546c4.421,4.471,11.319,5.624,20.692,3.461c9.374-2.163,19.469-5.167,30.284-9.013
	c10.815-3.846,21.512-8.172,32.087-12.979s17.018-7.859,19.324-9.157c2.26-1.346,3.461-2.066,3.605-2.163l0.144-0.216l0.721-0.36
	l0.722-0.361l0.721-0.36l0.721-0.361l0.145-0.216l0.217-0.144l0.217-0.144l0.144-0.216l0.721-0.216l0.722-0.145l-0.144,1.082
	l-0.218,1.082l-0.36,1.081l-0.36,1.082l-0.36,0.721l-0.36,0.721l-0.361,1.082c-0.239,0.721-0.479,1.682-0.721,2.884
	c-0.24,1.202-2.523,6.008-6.85,14.421s-9.734,16.944-16.224,25.597c-6.489,8.652-12.306,15.189-17.448,19.612
	c-5.192,4.471-8.629,7.595-10.313,9.374c-1.682,1.827-3.725,3.509-6.129,5.047l-3.604,2.379l-0.722,0.361l-0.721,0.36l-0.144,0.216
	l-0.217,0.144l-0.217,0.145l-0.144,0.216l-0.722,0.361l-0.721,0.36l-0.144,0.216l-0.217,0.145l-0.217,0.144l-0.144,0.216
	l-0.144,0.216l-0.218,0.144l-0.216,0.145l-0.145,0.216h3.605l20.189-4.327c13.46-2.884,26.318-6.369,38.576-10.455l19.468-6.489
	l2.163-0.721l1.082-0.36l0.721-0.361l0.721-0.36l0.722-0.36l0.721-0.36l1.442-0.217l1.441-0.144v1.442l-0.36,0.145l-0.36,0.216
	l-0.144,0.216l-0.217,0.144l-0.217,0.145l-0.144,0.216l-0.144,0.216l-0.218,0.144l-0.216,0.144l-0.145,0.216l-0.144,0.216
	l-0.217,0.145l-0.36,0.721l-0.36,0.721l-0.217,0.144c-0.096,0.145-3.147,4.23-9.157,12.258c-6.008,8.076-9.253,12.161-9.733,12.258
	c-0.48,0.145-1.154,0.865-2.02,2.163c-0.816,1.346-5.912,6.706-15.286,16.08c-9.373,9.374-18.554,17.713-27.543,25.02
	c-9.037,7.355-13.604,16.392-13.7,27.111c-0.145,10.671-0.697,22.738-1.659,36.197c-0.961,13.459-2.764,28-5.407,43.623
	s-6.729,33.289-12.258,52.997c-5.528,19.708-12.258,38.937-20.189,57.684s-16.224,35.571-24.876,50.473
	c-8.652,14.902-16.584,27.521-23.795,37.855c-7.21,10.335-14.54,20.068-21.991,29.202s-16.872,19.421-28.265,30.86
	c-11.44,11.393-17.689,17.643-18.747,18.748c-1.105,1.058-5.816,4.999-14.134,11.824c-8.268,6.874-17.16,13.748-26.679,20.622
	c-9.469,6.826-18.17,12.522-26.102,17.089s-17.497,9.782-28.697,15.646c-11.152,5.913-23.218,11.393-36.196,16.44
	c-12.979,5.047-26.68,9.734-41.1,14.061c-14.421,4.326-28.361,7.691-41.821,10.095c-13.459,2.402-28.721,4.446-45.786,6.129
	l-25.597,2.523v0.36h-46.868v-0.36l-6.129-0.36c-4.085-0.24-7.45-0.481-10.095-0.722c-2.644-0.24-12.618-1.563-29.923-3.966
	c-17.306-2.403-30.885-4.807-40.739-7.21s-24.516-6.971-43.984-13.7c-19.468-6.729-36.124-13.532-49.968-20.405
	c-13.796-6.826-22.448-11.152-25.958-12.979c-3.461-1.779-7.354-3.99-11.681-6.634l-6.489-3.966l-0.144-0.217l-0.218-0.144
	l-0.216-0.145l-0.145-0.217l-0.721-0.36l-0.721-0.36l-0.144-0.216l-0.218-0.145l-0.216-0.145l-0.145-0.216l-0.144-0.217
	l-0.217-0.144h-0.36v-1.442l0.721,0.145l0.722,0.216l3.244,0.36c2.163,0.24,8.052,0.601,17.666,1.082
	c9.614,0.48,19.828,0.48,30.645,0c10.815-0.481,21.872-1.563,33.168-3.245c11.296-1.682,24.636-4.566,40.018-8.652
	c15.383-4.086,29.516-8.941,42.398-14.565c12.835-5.672,21.968-9.902,27.399-12.69c5.384-2.739,13.604-7.835,24.659-15.286
	l16.584-11.176l0.145-0.217l0.216-0.144l0.218-0.145l0.144-0.217l0.144-0.216l0.217-0.145l0.217-0.144l0.144-0.217l0.721-0.216
	l0.722-0.145l0.144-0.721l0.217-0.722l0.217-0.144l0.144-0.217l-5.769-0.36c-3.846-0.24-7.571-0.481-11.176-0.721
	c-3.605-0.24-9.254-1.322-16.945-3.245c-7.69-1.923-15.982-4.808-24.876-8.652c-8.893-3.846-17.545-8.413-25.957-13.7
	s-14.493-9.687-18.243-13.195c-3.7-3.462-8.508-8.364-14.421-14.709c-5.864-6.393-10.959-12.955-15.286-19.685
	c-4.326-6.729-8.46-14.494-12.4-23.29l-5.986-13.123l-0.36-1.081l-0.36-1.082l-0.216-0.721l-0.145-0.722l1.081,0.145l1.082,0.217
	l7.932,1.081c5.288,0.722,13.58,0.961,24.876,0.722c11.297-0.24,19.107-0.722,23.434-1.442c4.326-0.722,6.971-1.202,7.932-1.442
	l1.442-0.36l1.803-0.36l1.803-0.36l0.144-0.217l0.217-0.145l0.217-0.144l0.144-0.217l-1.442-0.36l-1.441-0.36l-1.442-0.36
	l-1.442-0.36l-1.441-0.361c-0.962-0.24-2.644-0.721-5.048-1.441c-2.403-0.722-8.893-3.365-19.468-7.932s-18.987-9.014-25.237-13.34
	c-6.265-4.339-12.238-9.084-17.882-14.204c-5.624-5.191-11.801-11.874-18.53-20.045c-6.729-8.172-12.738-17.666-18.026-28.481
	c-5.287-10.816-9.253-21.15-11.897-31.005c-2.634-9.797-4.371-19.813-5.19-29.924l-1.299-15.142l0.721,0.144l0.722,0.216l0.721,0.36
	l0.721,0.361l0.722,0.36l0.721,0.36l11.176,5.047c7.452,3.365,16.705,6.25,27.761,8.653c11.057,2.403,17.666,3.726,19.829,3.966
	l3.244,0.36h6.489l-0.144-0.216l-0.217-0.144l-0.216-0.145l-0.145-0.216l-0.144-0.216l-0.217-0.144l-0.217-0.144l-0.144-0.216
	l-0.722-0.361l-0.721-0.36l-0.144-0.216l-0.217-0.145l-0.217-0.144l-0.144-0.216l-0.722-0.36l-0.721-0.36l-0.144-0.217
	c-0.145-0.096-2.212-1.634-6.202-4.614c-3.941-3.029-8.075-6.946-12.401-11.753c-4.326-4.807-8.652-9.854-12.979-15.142
	c-4.334-5.3-8.194-10.97-11.536-16.945c-3.364-6.008-6.922-13.652-10.672-22.929c-3.701-9.229-6.513-18.531-8.436-27.904
	s-3.004-18.627-3.245-27.76c-0.24-9.134,0-16.945,0.721-23.434c0.722-6.489,2.163-13.82,4.326-21.992
	c2.163-8.172,5.288-16.824,9.374-25.958l6.129-13.7l0.36-1.082l0.36-1.082l0.218-0.144l0.143-0.217l0.145-0.216l0.217-0.145
	l0.217,0.145l0.144,0.216l0.144,0.217l0.217,0.144l0.217,0.144l0.144,0.216l0.145,0.216l0.216,0.145l0.361,0.721l0.36,0.721
	l0.217,0.144l0.144,0.216l9.734,10.816c6.489,7.21,14.181,15.262,23.073,24.155c8.894,8.893,13.82,13.507,14.781,13.844
	c0.962,0.384,2.163,1.49,3.605,3.317c1.441,1.779,6.249,6.033,14.421,12.762s18.867,14.542,32.086,23.434
	c13.22,8.893,27.881,17.666,43.984,26.318c16.104,8.652,33.408,16.463,51.915,23.434c18.507,6.97,31.486,11.537,38.937,13.7
	c7.451,2.163,20.189,4.927,38.216,8.292c18.025,3.365,31.605,5.528,40.738,6.489c9.134,0.961,15.383,1.514,18.747,1.659l5.048,0.144
	l-0.144-1.082l-0.217-1.082l-1.442-9.013c-0.961-6.008-1.442-14.421-1.442-25.236c0-10.816,0.842-20.79,2.524-29.923
	c1.683-9.134,4.206-18.387,7.57-27.76c3.365-9.374,6.658-16.897,9.879-22.569c3.269-5.625,7.547-12.042,12.834-19.252
	c5.288-7.21,12.138-14.661,20.55-22.353s18.026-14.542,28.842-20.55s20.791-10.576,29.924-13.7
	c9.133-3.125,16.824-5.168,23.073-6.129C531.351,76.01,534.475,75.458,534.475,75.313z"/>
</svg>
